<svg width="22" height="22" viewBox="0 0 22 22" fill="none" xmlns="http://www.w3.org/2000/svg">
<path d="M4.2158 13.2804H5.2158V12.2804H4.2158V13.2804ZM8.92739 13.2804V12.2804H7.92739V13.2804H8.92739ZM16.5168 16.3702L16.0381 17.2482C16.348 17.4171 16.7239 17.4102 17.0274 17.23C17.3308 17.0499 17.5168 16.7231 17.5168 16.3702H16.5168ZM16.5168 1.30184H17.5168C17.5168 0.948945 17.3308 0.622179 17.0274 0.442002C16.7239 0.261825 16.348 0.254916 16.0381 0.423821L16.5168 1.30184ZM1.30668 13.2804L0.306682 13.2804C0.306685 13.8327 0.7544 14.2804 1.30668 14.2804V13.2804ZM1.30664 4.55306V3.55306C1.04142 3.55306 0.787069 3.65842 0.599532 3.84596C0.411996 4.0335 0.306639 4.28785 0.306641 4.55307L1.30664 4.55306ZM4.2158 20.6977H3.2158C3.2158 21.25 3.66352 21.6977 4.2158 21.6977V20.6977ZM8.92739 20.6977V21.6977C9.47968 21.6977 9.92739 21.25 9.92739 20.6977H8.92739ZM19.7008 5.79583V12.5637H21.7008V5.79583H19.7008ZM1.30664 5.55306H9.30676V3.55306H1.30664V5.55306ZM2.30668 13.2804L2.30664 4.55306L0.306641 4.55307L0.306682 13.2804L2.30668 13.2804ZM16.9954 15.4922C16.1759 15.0455 14.6813 14.2593 13.1664 13.582C12.4097 13.2436 11.6327 12.9255 10.9235 12.6902C10.2396 12.4633 9.52464 12.2804 8.92739 12.2804V14.2804C9.1866 14.2804 9.64647 14.3737 10.2936 14.5884C10.9154 14.7947 11.6256 15.0838 12.35 15.4078C13.7975 16.055 15.2411 16.8137 16.0381 17.2482L16.9954 15.4922ZM9.30676 5.55306C9.92226 5.55306 10.6254 5.35041 11.2794 5.10544C11.9583 4.85115 12.6913 4.50909 13.4 4.14988C14.7989 3.44085 16.2368 2.5934 16.9954 2.17985L16.0381 0.423821C15.1802 0.891501 13.8696 1.66967 12.4958 2.36594C11.8182 2.70938 11.1588 3.01491 10.5779 3.23252C9.97197 3.45947 9.54772 3.55306 9.30676 3.55306V5.55306ZM1.30668 14.2804H4.2158V12.2804H1.30668V14.2804ZM3.2158 13.2804V20.6977H5.2158V13.2804H3.2158ZM4.2158 21.6977H8.92739V19.6977H4.2158V21.6977ZM9.92739 20.6977V13.2804H7.92739V20.6977H9.92739ZM17.5168 16.3702V1.30184H15.5168V16.3702H17.5168Z" fill="black"/>
</svg>
