<svg width="15" height="15" viewBox="0 0 15 15" fill="none" xmlns="http://www.w3.org/2000/svg">
<path d="M8.77162 1.85721V4.20359C8.77162 4.52173 8.77162 4.6808 8.83353 4.80231C8.888 4.9092 8.9749 4.9961 9.08178 5.05056C9.2033 5.11248 9.36237 5.11248 9.68051 5.11248H12.0269M5.36329 9.08882V10.793M9.90773 7.95271V10.793M7.63551 6.53257V10.793M12.18 6.24186V10.3385C12.18 11.293 12.18 11.7702 11.9942 12.1347C11.8308 12.4554 11.5701 12.7161 11.2495 12.8795C10.8849 13.0652 10.4077 13.0652 9.45329 13.0652H5.81773C4.86331 13.0652 4.3861 13.0652 4.02156 12.8795C3.7009 12.7161 3.44019 12.4554 3.27681 12.1347C3.09106 11.7702 3.09106 11.293 3.09106 10.3385V4.43077C3.09106 3.47635 3.09106 2.99913 3.27681 2.63459C3.44019 2.31393 3.7009 2.05323 4.02156 1.88984C4.3861 1.7041 4.86331 1.7041 5.81773 1.7041H7.6422C8.05902 1.7041 8.26743 1.7041 8.46356 1.75119C8.63745 1.79293 8.80368 1.86179 8.95616 1.95523C9.12813 2.06062 9.2755 2.20799 9.57024 2.50272L11.3813 4.31381C11.6761 4.60855 11.8234 4.75592 11.9288 4.9279C12.0223 5.08038 12.0911 5.24661 12.1329 5.42049C12.18 5.61662 12.18 5.82503 12.18 6.24186Z" stroke="#6B7280" stroke-width="1.19292" stroke-linecap="round" stroke-linejoin="round"/>
</svg>
