<svg width="18" height="14" viewBox="0 0 18 14" fill="none" xmlns="http://www.w3.org/2000/svg">
<path fill-rule="evenodd" clip-rule="evenodd" d="M8.00914 3.95988H1.22857C0.830286 3.95988 0.5 3.6307 0.5 3.23374C0.5 2.83679 0.830286 2.5076 1.22857 2.5076H8.01886C8.33943 1.07469 9.612 0 11.1274 0C12.6429 0 13.9057 1.07469 14.236 2.5076H16.7714C17.1697 2.5076 17.5 2.83679 17.5 3.23374C17.5 3.6307 17.1697 3.95988 16.7714 3.95988H14.2263C13.9057 5.3928 12.6331 6.46748 11.1177 6.46748C9.60229 6.46748 8.33943 5.3928 8.00914 3.95988ZM12.8663 3.23374C12.8663 2.25587 12.0794 1.45228 11.1177 1.45228C10.156 1.45228 9.37886 2.24619 9.36914 3.23374C9.36914 4.21161 10.156 5.0152 11.1177 5.0152C12.0794 5.0152 12.8663 4.22129 12.8663 3.23374ZM9.99086 10.0401H16.7714C17.1697 10.0401 17.5 10.3693 17.5 10.7662C17.5 11.1632 17.1697 11.4924 16.7714 11.4924H9.99086C9.66057 12.9253 8.388 14 6.87257 14C5.35714 14 4.09429 12.9253 3.764 11.4924H1.22857C0.830286 11.4924 0.5 11.1632 0.5 10.7662C0.5 10.3693 0.830286 10.0401 1.22857 10.0401H3.764C4.08457 8.60719 5.35714 7.53251 6.87257 7.53251C8.39771 7.53251 9.66057 8.60719 9.99086 10.0401ZM5.13371 10.7662C5.13371 11.7441 5.92057 12.5477 6.88229 12.5477C7.844 12.5477 8.63086 11.7441 8.63086 10.7662C8.63086 9.78838 7.844 8.98478 6.88229 8.98478C5.92057 8.98478 5.13371 9.78838 5.13371 10.7662Z" fill="#0066FF"/>
</svg>
