<svg width="16" height="16" viewBox="0 0 16 16" fill="none" xmlns="http://www.w3.org/2000/svg">
<path d="M3.57031 13.582C3.86914 13.582 4.11523 13.3418 4.11523 13.0371V9.83203C4.2793 9.77344 4.77148 9.59766 5.51562 9.59766C7.64844 9.59766 9.07812 10.6641 11.1406 10.6641C12.043 10.6641 12.459 10.5527 12.9102 10.3418C13.332 10.1543 13.5781 9.80859 13.5781 9.26953V3.43359C13.5781 3.04688 13.2793 2.80664 12.8809 2.80664C12.5469 2.80664 12.0195 3.0293 11.082 3.0293C9.04297 3.0293 7.58398 1.96289 5.45703 1.96289C4.57227 1.96289 4.16797 2.07422 3.69336 2.28516C3.27734 2.47852 3.01953 2.7832 3.01953 3.31641V13.0371C3.01953 13.3359 3.27148 13.582 3.57031 13.582Z" fill="#FF9191"/>
</svg>
