<svg width="15" height="15" viewBox="0 0 15 15" fill="none" xmlns="http://www.w3.org/2000/svg">
<path d="M9.90657 5.18331V3.19549C9.90657 2.72301 9.90657 2.48678 9.80705 2.3416C9.72009 2.21475 9.58542 2.12859 9.43381 2.10279C9.26029 2.07326 9.04579 2.17226 8.61681 2.37025L3.57787 4.69591C3.19528 4.87249 3.00399 4.96078 2.86388 5.09771C2.74002 5.21877 2.64547 5.36654 2.58746 5.52973C2.52185 5.71432 2.52185 5.92501 2.52185 6.34638V9.1597M10.1906 8.87567H10.1963M2.52185 7.00109L2.52185 10.7503C2.52185 11.3865 2.52185 11.7047 2.64568 11.9477C2.7546 12.1615 2.9284 12.3353 3.14218 12.4442C3.38521 12.568 3.70335 12.568 4.33963 12.568H10.9291C11.5654 12.568 11.8835 12.568 12.1265 12.4442C12.3403 12.3353 12.5141 12.1615 12.623 11.9477C12.7469 11.7047 12.7469 11.3865 12.7469 10.7503V7.00109C12.7469 6.36481 12.7469 6.04666 12.623 5.80364C12.5141 5.58986 12.3403 5.41606 12.1265 5.30714C11.8835 5.18331 11.5654 5.18331 10.9291 5.18331L4.33963 5.18331C3.70335 5.18331 3.38521 5.18331 3.14218 5.30714C2.92841 5.41606 2.7546 5.58986 2.64568 5.80364C2.52185 6.04666 2.52185 6.36481 2.52185 7.00109ZM10.4746 8.87567C10.4746 9.03253 10.3475 9.1597 10.1906 9.1597C10.0337 9.1597 9.90657 9.03253 9.90657 8.87567C9.90657 8.71881 10.0337 8.59164 10.1906 8.59164C10.3475 8.59164 10.4746 8.71881 10.4746 8.87567Z" stroke="#6B7280" stroke-width="1.19292" stroke-linecap="round" stroke-linejoin="round"/>
</svg>
