<svg width="15" height="15" viewBox="0 0 15 15" fill="none" xmlns="http://www.w3.org/2000/svg">
<path d="M5.36213 9.01833V10.1544M7.63435 6.7461V10.1544M9.90657 4.47388V10.1544M5.24852 12.4267H10.0202C10.9746 12.4267 11.4518 12.4267 11.8164 12.2409C12.137 12.0775 12.3977 11.8168 12.5611 11.4962C12.7469 11.1316 12.7469 10.6544 12.7469 9.69999V4.92833C12.7469 3.9739 12.7469 3.49669 12.5611 3.13215C12.3977 2.81149 12.137 2.55079 11.8164 2.3874C11.4518 2.20166 10.9746 2.20166 10.0202 2.20166H5.24852C4.29409 2.20166 3.81688 2.20166 3.45234 2.3874C3.13168 2.55079 2.87098 2.81149 2.70759 3.13215C2.52185 3.49669 2.52185 3.9739 2.52185 4.92833V9.69999C2.52185 10.6544 2.52185 11.1316 2.70759 11.4962C2.87098 11.8168 3.13168 12.0775 3.45234 12.2409C3.81688 12.4267 4.29409 12.4267 5.24852 12.4267Z" stroke="#6B7280" stroke-width="1.19292" stroke-linecap="round" stroke-linejoin="round"/>
</svg>
 